# xmcd
#
# Track frame offsets: 
#        150
#        18294
#        41539
#        69671
#        93455
#        111363
#        140015
#        157524
#        179840
#        199413
#        223751
#        246628
#        266218
#
# Disc length: 3852 seconds
#
# Revision: 0
# Processed by: cddbd v1.5.2PL0 Copyright (c) Steve Scherf et al.
# Submitted via: ExactAudioCopyFreeDBPlugin 1.0
#
DISCID=cb0f0a0d
DTITLE=Van Blue Music - Hamburg City Voodoo Woman
DYEAR=2013
DGENRE=Blues
TTITLE0=Listen Doctor
TTITLE1=Come To Mama
TTITLE2=Old Love
TTITLE3=Hamburg City Voodoo Woman
TTITLE4=Rollin'
TTITLE5=We Know A Soulful Mercedes Benz
TTITLE6=I Wanna Dance With You
TTITLE7=Nobody Knows You When You're Down And Out
TTITLE8=I Don't Believe
TTITLE9=Sweet Lovin'
TTITLE10=You Can't Fool Me
TTITLE11=Bluesbound
TTITLE12=Bluesqueen
EXTD=
EXTT0=
EXTT1=
EXTT2=
EXTT3=
EXTT4=
EXTT5=
EXTT6=
EXTT7=
EXTT8=
EXTT9=
EXTT10=
EXTT11=
EXTT12=
PLAYORDER=
